<?xml version="1.0" encoding="UTF-8" standalone="no"?>
<!-- Uploaded to: SVG Repo, www.svgrepo.com, Generator: SVG Repo Mixer Tools -->

<svg
   height="600px"
   width="600px"
   version="1.1"
   id="Layer_1"
   viewBox="0 0 512 512"
   xml:space="preserve"
   sodipodi:docname="icon.svg"
   inkscape:version="1.2.2 (732a01da63, 2022-12-09)"
   xmlns:inkscape="http://www.inkscape.org/namespaces/inkscape"
   xmlns:sodipodi="http://sodipodi.sourceforge.net/DTD/sodipodi-0.dtd"
   xmlns="http://www.w3.org/2000/svg"
   xmlns:svg="http://www.w3.org/2000/svg"><defs
   id="defs402">
	
	
	
	
	
	
	
	
	
	

	
	
	
</defs><sodipodi:namedview
   id="namedview400"
   pagecolor="#505050"
   bordercolor="#eeeeee"
   borderopacity="1"
   inkscape:showpageshadow="0"
   inkscape:pageopacity="0"
   inkscape:pagecheckerboard="0"
   inkscape:deskcolor="#505050"
   showgrid="false"
   inkscape:zoom="0.45916667"
   inkscape:cx="506.35209"
   inkscape:cy="524.86388"
   inkscape:window-width="1366"
   inkscape:window-height="705"
   inkscape:window-x="-8"
   inkscape:window-y="32"
   inkscape:window-maximized="1"
   inkscape:current-layer="Layer_1" />
<path
   style="fill:#ecedef;stroke-width:0.927406"
   d="M 414.60761,18.58432 H 97.392395 c -4.106554,0 -7.435013,3.327529 -7.435013,7.435006 V 485.98167 c 0,4.10656 3.327534,7.43501 7.435013,7.43501 H 367.02523 c 30.33635,0 55.01739,-24.6801 55.01739,-55.01738 V 26.019326 c 0,-4.107477 -3.32846,-7.435006 -7.43501,-7.435006 z"
   id="path355" />
<path
   style="fill:#d9dcdf;stroke-width:0.927405"
   d="m 414.60761,247.0784 c -48.72494,0 -88.22591,39.50004 -88.22591,88.2259 0,48.72587 39.50004,88.22591 88.22591,88.22591 2.50399,0 4.98295,-0.11036 7.43501,-0.31439 V 247.39279 c -2.45206,-0.20403 -4.93102,-0.31439 -7.43501,-0.31439 z"
   id="path357" /><path
   style="fill:#cccccc;stroke-width:0.927405;fill-opacity:1"
   d="m 311.51262,438.39837 v -31.72189 c 0,-4.10563 -3.32846,-7.43501 -7.43501,-7.43501 H 26.01929 c -4.105623,0 -7.435007,3.32846 -7.435007,7.43501 v 31.72189 c 0,30.3855 24.631881,55.01738 55.017383,55.01738 H 366.53 c -30.3855,0 -55.01738,-24.63188 -55.01738,-55.01738 z"
   id="path359" /><path
   style="fill:#cccccc;stroke-width:0.927405"
   d="M 263.93024,74.096937 H 137.04452 c -4.10655,0 -7.435,3.32753 -7.435,7.435007 V 232.20931 c 0,4.10655 3.32753,7.43501 7.435,7.43501 h 126.88572 c 4.10655,0 7.43501,-3.32753 7.43501,-7.43501 V 81.531944 c 0,-4.107477 -3.32753,-7.435007 -7.43501,-7.435007 z"
   id="path361" />
<g
   id="g369"
   transform="matrix(0.92740514,0,0,0.92740514,18.584283,18.58432)">
	<path
   style="fill:#509fe8"
   d="m 196.142,153.921 c 19.156,0 34.739,-15.583 34.739,-34.739 0,-19.156 -15.583,-34.739 -34.739,-34.739 -19.156,0 -34.739,15.583 -34.739,34.739 0,19.156 15.583,34.739 34.739,34.739 z"
   id="path365" />
	<path
   style="fill:#509fe8"
   d="M 213.244,153.921 H 179.04 c -13.873,0 -25.119,11.246 -25.119,25.119 v 59.324 h 84.443 V 179.04 c -0.001,-13.873 -11.247,-25.119 -25.12,-25.119 z"
   id="path367" />
</g>
<path
   style="fill:#808080;stroke-width:0.927405"
   d="m 374.95547,104.82743 h -79.30426 c -4.10655,0 -7.43501,-3.32753 -7.43501,-7.435003 0,-4.10655 3.32753,-7.435007 7.43501,-7.435007 h 79.30426 c 4.10655,0 7.43501,3.327529 7.43501,7.435007 0,4.106553 -3.32753,7.435003 -7.43501,7.435003 z"
   id="path371" /><path
   style="fill:#808080;stroke-width:0.927405"
   d="m 374.95547,144.47864 h -79.30426 c -4.10655,0 -7.43501,-3.32753 -7.43501,-7.43501 0,-4.10655 3.32753,-7.435 7.43501,-7.435 h 79.30426 c 4.10655,0 7.43501,3.32753 7.43501,7.435 0,4.10748 -3.32753,7.43501 -7.43501,7.43501 z"
   id="path373" /><path
   style="fill:#808080;stroke-width:0.927405"
   d="m 374.95547,184.13077 h -79.30426 c -4.10655,0 -7.43501,-3.32753 -7.43501,-7.435 0,-4.10655 3.32753,-7.43501 7.43501,-7.43501 h 79.30426 c 4.10655,0 7.43501,3.32753 7.43501,7.43501 0,4.10747 -3.32753,7.435 -7.43501,7.435 z"
   id="path375" /><path
   style="fill:#808080;stroke-width:0.927405"
   d="m 374.95547,223.78291 h -79.30426 c -4.10655,0 -7.43501,-3.32753 -7.43501,-7.43501 0,-4.10748 3.32753,-7.43501 7.43501,-7.43501 h 79.30426 c 4.10655,0 7.43501,3.32753 7.43501,7.43501 0,4.10748 -3.32753,7.43501 -7.43501,7.43501 z"
   id="path377" /><path
   style="fill:#808080;stroke-width:0.927405"
   d="m 168.76549,287.22577 h -7.93024 c -4.10655,0 -7.43501,-3.32753 -7.43501,-7.43501 0,-4.10748 3.32753,-7.43501 7.43501,-7.43501 h 7.93024 c 4.10655,0 7.43501,3.32753 7.43501,7.43501 0,4.10748 -3.32753,7.43501 -7.43501,7.43501 z"
   id="path379" /><path
   style="fill:#808080;stroke-width:0.927405"
   d="M 311.51262,287.22577 H 200.48738 c -4.10655,0 -7.43501,-3.32753 -7.43501,-7.43501 0,-4.10748 3.32753,-7.43501 7.43501,-7.43501 h 111.02524 c 4.10655,0 7.435,3.32753 7.435,7.43501 0,4.10748 -3.32845,7.43501 -7.435,7.43501 z"
   id="path381" /><path
   style="fill:#808080;stroke-width:0.927405"
   d="m 168.76549,326.8779 h -7.93024 c -4.10655,0 -7.43501,-3.32753 -7.43501,-7.43501 0,-4.10655 3.32753,-7.435 7.43501,-7.435 h 7.93024 c 4.10655,0 7.43501,3.32753 7.43501,7.435 0,4.10748 -3.32753,7.43501 -7.43501,7.43501 z"
   id="path383" /><path
   style="fill:#808080;stroke-width:0.927405"
   d="M 311.51262,326.8779 H 200.48738 c -4.10655,0 -7.43501,-3.32753 -7.43501,-7.43501 0,-4.10655 3.32753,-7.435 7.43501,-7.435 h 111.02524 c 4.10655,0 7.435,3.32753 7.435,7.435 0,4.10748 -3.32845,7.43501 -7.435,7.43501 z"
   id="path385" /><path
   style="fill:#808080;stroke-width:0.927405"
   d="m 168.76549,366.53004 h -7.93024 c -4.10655,0 -7.43501,-3.32753 -7.43501,-7.43501 0,-4.10655 3.32753,-7.43501 7.43501,-7.43501 h 7.93024 c 4.10655,0 7.43501,3.32753 7.43501,7.43501 0,4.10655 -3.32753,7.43501 -7.43501,7.43501 z"
   id="path387" /><path
   style="fill:#808080;stroke-width:0.927405"
   d="M 311.51262,366.53004 H 200.48738 c -4.10655,0 -7.43501,-3.32753 -7.43501,-7.43501 0,-4.10655 3.32753,-7.43501 7.43501,-7.43501 h 111.02524 c 4.10655,0 7.435,3.32753 7.435,7.43501 0,4.10655 -3.32845,7.43501 -7.435,7.43501 z"
   id="path389" />
<circle
   style="fill:#ffc44f;stroke-width:0.927406"
   cx="414.60764"
   cy="335.30338"
   r="71.3731"
   id="circle393" />
<path
   style="fill:#f7b14d;stroke-width:0.927406"
   d="m 414.60761,414.11241 c -43.45542,0 -78.8081,-35.35268 -78.8081,-78.80811 0,-43.45542 35.35268,-78.80811 78.8081,-78.80811 43.45542,0 78.8081,35.35176 78.8081,78.80719 0,43.45542 -35.35268,78.80903 -78.8081,78.80903 z m 0,-142.74712 c -35.2553,0 -63.93902,28.68278 -63.93902,63.93901 0,35.25624 28.68278,63.93902 63.93902,63.93902 35.25623,0 63.93902,-28.68278 63.93902,-63.93902 0,-35.25623 -28.68372,-63.93901 -63.93902,-63.93901 z"
   id="path395" />
<path
   style="fill:#c6803f;stroke-width:0.927406"
   d="m 414.60761,327.8693 c -4.6463,0 -8.42641,-3.78011 -8.42641,-8.4264 0,-4.64631 3.78011,-8.42641 8.42641,-8.42641 h 15.86049 c 4.10654,0 7.435,-3.32753 7.435,-7.43501 0,-4.10655 -3.32753,-7.435 -7.435,-7.435 h -8.42641 v -8.42641 c 0,-4.10654 -3.32753,-7.435 -7.43501,-7.435 -4.10748,0 -7.435,3.32753 -7.435,7.435 v 9.64966 c -9.20913,3.11051 -15.86049,11.82627 -15.86049,22.07223 0,12.8455 10.45001,23.2955 23.29549,23.2955 4.64631,0 8.4264,3.7801 8.4264,8.4264 0,4.6463 -3.78009,8.42641 -8.4264,8.42641 H 398.7462 c -4.10655,0 -7.43501,3.32752 -7.43501,7.435 0,4.10656 3.32753,7.435 7.43501,7.435 h 8.4264 v 8.42642 c 0,4.10654 3.32754,7.435 7.43501,7.435 4.10747,0 7.43501,-3.32754 7.43501,-7.435 v -9.64966 c 9.20913,-3.11051 15.86048,-11.82627 15.86048,-22.07224 0,-12.84549 -10.45,-23.29549 -23.29549,-23.29549 z"
   id="path397" />
</svg>
